<?xml version="1.0" encoding="UTF-8"?>
<svg version="1.1" xmlns="http://www.w3.org/2000/svg" width="1104" height="1019">
<path d="M0 0 C-1.22406259 3.5289464 -2.85076628 6.36684806 -5.02001953 9.39892578 C-24.57591657 36.84239383 -37.26755935 69.69672932 -42 103 C-42.14248169 103.9590625 -42.14248169 103.9590625 -42.2878418 104.9375 C-48.93067657 155.63628583 -33.01638913 206.53010335 -12 252 C-11.37158203 253.37430176 -11.37158203 253.37430176 -10.73046875 254.77636719 C6.56736364 292.51584436 28.72641413 328.03743067 51 363 C52.14589613 364.80074129 53.29172722 366.60152397 54.4375 368.40234375 C56.22179203 371.20616104 58.00627545 374.0098558 59.79125977 376.81323242 C65.55115492 385.86064854 71.28899977 394.92164021 77 404 C77.5892627 404.93602051 78.17852539 405.87204102 78.78564453 406.83642578 C87.35580088 420.46071965 95.82367277 434.13535368 104 448 C104.57186035 448.96566895 105.1437207 449.93133789 105.73291016 450.92626953 C144.84699094 517.14599855 181.48140078 593.84050603 162.05004883 672.38378906 C152.36244766 709.21014186 130.96476807 739.79865202 105.3125 767.375 C104.70712402 768.02887695 104.10174805 768.68275391 103.47802734 769.35644531 C99.78140482 773.28842582 95.92382482 776.90956045 91.82836914 780.42333984 C89.5087271 782.42364006 87.29210167 784.52524202 85.0625 786.625 C78.4202647 792.67926426 71.29869314 798.05790658 64.10058594 803.43017578 C62.18761029 804.8597938 60.2842898 806.30124551 58.3828125 807.74609375 C43.50679791 818.95552889 27.70061827 828.90343494 11.75 838.5 C10.81534912 839.07024902 9.88069824 839.64049805 8.91772461 840.22802734 C8.05284424 840.74059082 7.18796387 841.2531543 6.296875 841.78125 C5.53729492 842.23564453 4.77771484 842.69003906 3.99511719 843.15820312 C2 844 2 844 -1 843 C-0.31035156 841.9584375 0.37929688 840.916875 1.08984375 839.84375 C7.48822237 830.11221458 13.49097513 820.26133029 19 810 C19.60457031 808.88625 20.20914063 807.7725 20.83203125 806.625 C48.3738539 753.90385867 47.79485492 695.10161505 30.49633789 639.32641602 C12.18632401 582.7738101 -19.48607171 531.35163543 -51.34472656 481.59179688 C-53.91247137 477.57126902 -56.45661073 473.53596276 -59 469.5 C-62.67104715 463.677486 -66.3574389 457.86512486 -70.05908203 452.06201172 C-132.9460515 353.44977973 -132.9460515 353.44977973 -152 301 C-152.31807617 300.12956055 -152.63615234 299.25912109 -152.96386719 298.36230469 C-171.94460834 245.78347001 -174.50571229 190.22074856 -150.953125 138.71044922 C-134.94360111 105.3249169 -108.04812215 74.67267696 -79 52 C-77.7874797 51.0021933 -76.57806714 50.00060305 -75.37109375 48.99609375 C-16.35440452 0 -16.35440452 0 0 0 Z " fill="#7A4199" transform="translate(510,83)"/>
<path d="M0 0 C0 60.06 0 120.12 0 182 C-7.5708989 180.91844301 -15.07075697 179.84039318 -22.59619141 178.55395508 C-37.98790634 175.94898432 -53.44873042 174.31221214 -69 173 C-70.07362793 172.90211182 -71.14725586 172.80422363 -72.25341797 172.70336914 C-84.18893718 171.74342388 -96.14451501 171.81391858 -108.11132812 171.81469727 C-111.83215022 171.81252502 -115.55266813 171.79435404 -119.2734375 171.77539062 C-139.40530801 171.72747469 -159.45879334 172.65833234 -179.375 175.75 C-180.4781958 175.91918945 -181.5813916 176.08837891 -182.71801758 176.26269531 C-222.08480681 182.53642041 -262.56346686 194.02659803 -293 221 C-293.825 221.68191406 -294.65 222.36382812 -295.5 223.06640625 C-322.03962305 245.58361768 -334.03529979 280.45859403 -336.82568359 314.25390625 C-337.11402627 318.79631307 -337.1842772 323.3244052 -337.1875 327.875 C-337.19974609 328.74640625 -337.21199219 329.6178125 -337.22460938 330.515625 C-337.26441273 349.46202022 -334.01365072 368.20393357 -330.8671875 386.82421875 C-330.46580216 389.23310732 -330.06510926 391.64211135 -329.66506958 394.05122375 C-328.62250675 400.31975618 -327.57161881 406.58686196 -326.51855469 412.8536377 C-325.02627252 421.74364261 -323.54538493 430.635554 -322.06350708 439.52729797 C-321.27645764 444.24981654 -320.48608298 448.97175997 -319.69308472 453.69328308 C-319.33557264 455.82896614 -318.97807854 457.96465221 -318.62060547 460.1003418 C-318.45543427 461.0793898 -318.29026306 462.05843781 -318.12008667 463.06715393 C-317.97152222 463.95669769 -317.82295776 464.84624146 -317.66989136 465.76274109 C-317.5397508 466.53742579 -317.40961025 467.3121105 -317.27552605 468.1102705 C-317 470 -317 470 -317 472 C-317.66 472 -318.32 472 -319 472 C-320.13818359 470.55737305 -320.13818359 470.55737305 -321.3984375 468.51171875 C-321.8713623 467.75270264 -322.34428711 466.99368652 -322.83154297 466.21166992 C-323.34088379 465.37869385 -323.85022461 464.54571777 -324.375 463.6875 C-325.46858019 461.92697784 -326.56233483 460.16656404 -327.65625 458.40625 C-328.49349609 457.05080078 -328.49349609 457.05080078 -329.34765625 455.66796875 C-331.83103796 451.65815856 -334.35250314 447.67277407 -336.875 443.6875 C-337.36403809 442.91301514 -337.85307617 442.13853027 -338.35693359 441.34057617 C-342.22366741 435.21793509 -346.11008564 429.10793203 -350 423 C-351.76809752 420.22180299 -353.53597847 417.44346837 -355.30371094 414.66503906 C-356.40003711 412.94260146 -357.49699833 411.22056783 -358.59472656 409.49902344 C-404.56871959 337.3709366 -443.93796145 248.8839564 -425.8046875 161.42578125 C-419.80552374 134.7061015 -408.15128266 109.6119319 -390 89 C-389.2471875 88.13761719 -388.494375 87.27523437 -387.71875 86.38671875 C-385.50986544 83.89415895 -383.26743004 81.43932907 -381 79 C-380.38898437 78.33484375 -379.77796875 77.6696875 -379.1484375 76.984375 C-324.27757325 19.54508731 -233.43335009 5.13705666 -158 -1 C-157.26358276 -1.06058594 -156.52716553 -1.12117187 -155.76843262 -1.18359375 C-104.18512856 -5.35873612 -51.54173977 -3.96474921 0 0 Z M-151 41 C-151 70.37 -151 99.74 -151 130 C-132.52 129.67 -114.04 129.34 -95 129 C-95 99.3 -95 69.6 -95 39 C-123.05229077 38.46693487 -123.05229077 38.46693487 -151 41 Z M-87 39 C-87.02312215 50.71726788 -87.04091443 62.43453037 -87.05181217 74.15181637 C-87.05704128 79.59202312 -87.06413943 85.03221431 -87.07543945 90.47241211 C-87.08626735 95.71785702 -87.09227662 100.96328692 -87.09487724 106.20874214 C-87.09673167 108.21470946 -87.10035262 110.22067592 -87.10573006 112.22663689 C-87.11293919 115.02602824 -87.113991 117.82535679 -87.11352539 120.62475586 C-87.11712067 121.46272705 -87.12071594 122.30069824 -87.12442017 123.1640625 C-87.47678705 126.8850343 -87.47678705 126.8850343 -86 130 C-71.48 130.99 -56.96 131.98 -42 133 C-42 102.31 -42 71.62 -42 40 C-48.3361341 39.36638659 -54.32047229 38.85671184 -60.6328125 38.90234375 C-61.3955246 38.9037587 -62.15823669 38.90517365 -62.94406128 38.90663147 C-65.3377505 38.91214957 -67.73133991 38.92468546 -70.125 38.9375 C-71.76562363 38.94252563 -73.40624876 38.94708665 -75.046875 38.95117188 C-79.03128742 38.96209195 -83.0156269 38.97929782 -87 39 Z M-177.6953125 42.76953125 C-178.37189911 42.85120041 -179.04848572 42.93286957 -179.74557495 43.01701355 C-181.16247869 43.18956883 -182.57899845 43.36530617 -183.99511719 43.54418945 C-186.09997596 43.80934761 -188.20599989 44.06270668 -190.3125 44.31445312 C-200.30562953 45.54731128 -210.05673019 47.24530533 -220 49 C-220 79.03 -220 109.06 -220 140 C-214.60940564 139.3261757 -209.2869459 138.58452322 -203.94140625 137.66015625 C-202.40432193 137.39894108 -200.86721167 137.13787848 -199.33007812 136.87695312 C-196.96102721 136.47291952 -194.59221411 136.06762141 -192.22387695 135.65942383 C-189.90120585 135.25990585 -187.57763036 134.86599759 -185.25390625 134.47265625 C-184.57928848 134.3548732 -183.90467072 134.23709015 -183.20960999 134.11573792 C-175.15953041 132.76084114 -167.14218945 131.95790464 -159 131 C-159 101.63 -159 72.26 -159 42 C-168.44327516 41.99511467 -168.44327516 41.99511467 -177.6953125 42.76953125 Z M-244.6875 54.5 C-245.76188324 54.76528 -245.76188324 54.76528 -246.85797119 55.03591919 C-267.43246434 60.07596872 -267.43246434 60.07596872 -287 68 C-287 100.01 -287 132.02 -287 165 C-283.9908989 163.79635956 -281.1760219 162.64179655 -278.296875 161.22265625 C-265.79899907 155.23961561 -252.97147402 150.79404886 -239.80957031 146.54321289 C-239.10243393 146.31436905 -238.39529755 146.08552521 -237.66673279 145.8497467 C-235.72104815 145.22225528 -233.77330001 144.60117275 -231.82543945 143.98046875 C-229.12978411 143.27518831 -229.12978411 143.27518831 -228 142 C-227.90479094 139.16959328 -227.87446369 136.36365007 -227.88647461 133.53295898 C-227.88632858 132.64523804 -227.88618256 131.75751709 -227.8860321 130.84289551 C-227.88673157 127.89393716 -227.89452552 124.94504113 -227.90234375 121.99609375 C-227.90420781 119.95728083 -227.90563177 117.91846746 -227.90663147 115.87965393 C-227.91045759 110.50215426 -227.92028868 105.12468142 -227.93133545 99.74719238 C-227.94154755 94.26440799 -227.94612866 88.78161928 -227.95117188 83.29882812 C-227.96191086 72.53254027 -227.97898841 61.76627236 -228 51 C-233.52646733 51 -239.31714488 53.17096509 -244.6875 54.5 Z M-330 91 C-330.82806152 91.61029053 -330.82806152 91.61029053 -331.67285156 92.23291016 C-333.48142758 93.57763376 -335.27444381 94.9406272 -337.0625 96.3125 C-337.59222412 96.71404297 -338.12194824 97.11558594 -338.66772461 97.52929688 C-339.76876575 98.39483986 -340.84255533 99.29594082 -341.88960266 100.22607422 C-344 102 -344 102 -346.73126221 103.79650879 C-351.05336179 107.13193563 -354.30564056 110.10871122 -355.6163311 115.56638145 C-356.581529 123.42285449 -356.26022061 131.33501868 -356.07421875 139.23046875 C-356.05368042 141.79304148 -356.03803272 144.35565767 -356.02705383 146.91828918 C-355.98948923 152.95050436 -355.90300593 158.98005607 -355.79220945 165.01120788 C-355.66872521 171.88405107 -355.60864631 178.75700763 -355.55355966 185.63068616 C-355.43896171 199.75501718 -355.2458192 213.87738619 -355 228 C-351.79402084 224.88368983 -349.39294803 221.74513195 -346.9375 218 C-342.61865465 211.59869253 -337.7500191 205.97709156 -332.38525391 200.43652344 C-331.04677373 199.04850487 -329.73187319 197.63786681 -328.41796875 196.2265625 C-322.13159741 189.64802098 -315.3249594 184.18481747 -307.9921875 178.82421875 C-307.39033347 178.3821792 -306.78847944 177.94013966 -306.16838741 177.48470497 C-304 176 -304 176 -301.67730808 174.75191307 C-296.99548709 172.20848532 -296.99548709 172.20848532 -294.1854229 167.89194107 C-293.8913387 165.32811456 -293.8850059 162.90188251 -293.97827148 160.32275391 C-293.97695724 159.36602783 -293.97564301 158.40930176 -293.97428894 157.42358398 C-293.98054154 154.27268343 -294.05044349 151.12662173 -294.12109375 147.9765625 C-294.13788652 145.78798032 -294.15069453 143.59936423 -294.15968323 141.41073608 C-294.19399448 135.65918029 -294.28235569 129.90968067 -294.38201904 124.15893555 C-294.47420178 118.28722958 -294.51521576 112.41519025 -294.56054688 106.54296875 C-294.65697693 95.02774399 -294.81051656 83.51404318 -295 72 C-305.59995217 72 -321.59636917 84.79621159 -330 91 Z M-364 124 C-388.66064983 159.66772036 -391.92185661 202.38270035 -384.43164062 244.17089844 C-381.16401031 261.33754613 -381.16401031 261.33754613 -376 278 C-375.34 278.33 -374.68 278.66 -374 279 C-373.7666394 278.14003418 -373.7666394 278.14003418 -373.52856445 277.26269531 C-372.79806877 274.58948322 -372.05532502 271.9198112 -371.3125 269.25 C-370.94608398 267.89841797 -370.94608398 267.89841797 -370.57226562 266.51953125 C-369.19347368 261.5977676 -367.59556436 257.05478028 -365.42292786 252.42474365 C-362.70744757 245.95381355 -362.31851748 240.39055469 -362.43237305 233.43847656 C-362.43164291 232.24678864 -362.43091278 231.05510071 -362.43016052 229.82730103 C-362.43361348 225.93126147 -362.4723687 222.03645286 -362.51171875 218.140625 C-362.52385402 215.42251254 -362.52841355 212.70440118 -362.53315735 209.98626709 C-362.5486169 203.59033503 -362.58953642 197.19483698 -362.6399048 190.79909492 C-362.69604627 183.51002057 -362.72334665 176.22092406 -362.74838197 168.93168688 C-362.80046096 153.95421728 -362.88824695 138.97715232 -363 124 C-363.33 124 -363.66 124 -364 124 Z " fill="#D4B5D6" transform="translate(940,3)"/>
<path d="M0 0 C2.9132609 2.74268233 5.08887083 5.46091764 7.1796875 8.8671875 C8.06756958 10.30251831 8.06756958 10.30251831 8.97338867 11.7668457 C9.60092041 12.79253662 10.22845215 13.81822754 10.875 14.875 C12.221844 17.05388771 13.56951868 19.23226213 14.91796875 21.41015625 C15.59907715 22.51246582 16.28018555 23.61477539 16.98193359 24.75048828 C20.0118168 29.62923803 23.09620894 34.47250801 26.1875 39.3125 C27.34519835 41.12751088 28.50275223 42.94261392 29.66015625 44.7578125 C30.21848145 45.6334082 30.77680664 46.50900391 31.35205078 47.41113281 C34.44766908 52.2742345 37.52593654 57.1482943 40.59790039 62.02636719 C43.07068991 65.95216271 45.55459931 69.86996009 48.0625 73.7734375 C80.14243205 123.82527738 103.31964648 179.80614527 111 239 C111.1023999 239.75764648 111.2047998 240.51529297 111.31030273 241.29589844 C116.84136998 287.90992427 107.92382613 337.06658183 79.6171875 375.2109375 C77.47630239 377.87398971 75.27313694 380.44935263 73 383 C72.27167969 383.83660156 71.54335938 384.67320312 70.79296875 385.53515625 C68.56502895 388.05963445 66.29494476 390.53636699 64 393 C62.91525391 394.18335938 62.91525391 394.18335938 61.80859375 395.390625 C50.58396484 407.16603942 36.93958717 416.69844533 23 425 C22.33452148 425.39783691 21.66904297 425.79567383 20.98339844 426.20556641 C9.09988773 433.23312477 -3.19355978 438.87152346 -16 444 C-16.76328613 444.3103418 -17.52657227 444.62068359 -18.31298828 444.94042969 C-61.99682206 462.54450597 -109.66944507 469.02607614 -156.27734375 473.203125 C-157.3713726 473.30278061 -157.3713726 473.30278061 -158.48750305 473.40444946 C-173.55747383 474.71382597 -188.54712904 475.16200309 -203.66796875 475.16796875 C-205.63772096 475.17119893 -207.60747296 475.17456416 -209.57722473 475.17805481 C-213.6944738 475.18400296 -217.81170203 475.18589966 -221.92895508 475.18530273 C-226.06376593 475.18522222 -230.19846422 475.19205044 -234.33325195 475.20581055 C-255.51339778 475.27523005 -276.64609494 475.18448932 -297.80078125 474.05078125 C-298.61621084 474.0075643 -299.43164043 473.96434734 -300.27178001 473.91982079 C-313.38283611 473.2057213 -313.38283611 473.2057213 -317 472 C-317 412.27 -317 352.54 -317 291 C-304.68437 292.11960273 -304.68437 292.11960273 -299.05078125 293.0859375 C-297.18450073 293.3967627 -297.18450073 293.3967627 -295.28051758 293.71386719 C-294.63466705 293.82194702 -293.98881653 293.93002686 -293.32339478 294.04138184 C-276.27612874 296.86961416 -259.22908241 298.70303094 -242 300 C-240.57034912 300.10803955 -240.57034912 300.10803955 -239.11181641 300.21826172 C-179.5228516 304.44976289 -113.25692167 300.8295071 -59 274 C-58.29085449 273.65888184 -57.58170898 273.31776367 -56.85107422 272.96630859 C-45.59454367 267.52189068 -35.65751795 260.93370292 -26 253 C-25.44441406 252.54367187 -24.88882812 252.08734375 -24.31640625 251.6171875 C-4.3411126 234.91413022 8.01336111 212.35455551 14.75 187.4375 C14.94883789 186.70684326 15.14767578 185.97618652 15.35253906 185.22338867 C18.59175505 172.55127571 19.37305703 160.03144945 19.37060547 147.01977539 C19.37490678 144.49227626 19.41115652 141.96663713 19.44921875 139.43945312 C19.6670387 109.67604131 12.7213221 79.76548337 7.77191162 50.52130127 C6.38568092 42.33052756 5.00309842 34.13915065 3.62697601 25.94667244 C3.14889824 23.1077224 2.66677945 20.26947878 2.18438721 17.43125916 C1.89390505 15.70607458 1.60359198 13.98086152 1.31347656 12.25561523 C1.17949966 11.47399017 1.04552277 10.69236511 0.90748596 9.88705444 C0.34500974 6.52026372 0 3.42605583 0 0 Z M57 193 C56.77860352 193.74048584 56.55720703 194.48097168 56.32910156 195.24389648 C55.30883657 198.64362963 54.27948961 202.04054936 53.25 205.4375 C52.90195312 206.60216797 52.55390625 207.76683594 52.1953125 208.96679688 C51.84726562 210.11083984 51.49921875 211.25488281 51.140625 212.43359375 C50.82641602 213.47572021 50.51220703 214.51784668 50.18847656 215.59155273 C49 219 49 219 48.02490234 220.87519073 C44.69943738 227.33408284 44.45203349 232.95548239 44.54589844 240.12915039 C44.54531433 241.31064667 44.54473022 242.49214294 44.54412842 243.70944214 C44.54690051 247.58915254 44.57795292 251.46808113 44.609375 255.34765625 C44.61907283 258.04763865 44.62272889 260.74762028 44.62652588 263.44761658 C44.63891611 269.81169932 44.67168343 276.17550441 44.71192384 282.53946537 C44.75676543 289.78979908 44.77865957 297.04014664 44.79870558 304.29058468 C44.84042017 319.19387733 44.91069435 334.09691078 45 349 C55.8500305 338.5220672 61.69952245 322.19493944 65.75 307.9375 C66.04813599 306.89480957 66.04813599 306.89480957 66.35229492 305.83105469 C69.6975484 293.40214033 70.40746713 281.10307402 70.375 268.3125 C70.37445618 267.50285797 70.37391235 266.69321594 70.37335205 265.85903931 C70.29740047 241.12282349 66.24248367 216.39295365 58 193 C57.67 193 57.34 193 57 193 Z M36 245 C34.80263847 246.75022489 33.64363456 248.52670556 32.5 250.3125 C28.38369098 256.56046905 23.86673823 262.31216007 19 268 C18.31808594 268.80566406 17.63617188 269.61132812 16.93359375 270.44140625 C11.64495808 276.55800837 6.25631102 282.25322256 -0.88452148 286.17486572 C-8.89304494 290.84845325 -8.89304494 290.84845325 -13.90045166 298.36769104 C-15.26081877 305.2004514 -14.8368969 312.12535419 -14.5625 319.046875 C-14.53261246 321.27166563 -14.50985853 323.49656246 -14.49389648 325.72149658 C-14.43314855 331.54407712 -14.27633138 337.36014736 -14.09863281 343.18017578 C-13.93417961 349.13224201 -13.86172011 355.08537346 -13.78125 361.0390625 C-13.61027008 372.69555047 -13.33765599 384.34723152 -13 396 C-2.23285642 391.79631046 7.55854375 385.64186561 16.75 378.6875 C17.72114746 377.9617981 17.72114746 377.9617981 18.71191406 377.22143555 C20.02842767 376.19895643 21.31540302 375.13738034 22.57110596 374.04107666 C25 372 25 372 28.00646973 369.93934631 C32.53689692 366.53881036 36.22992699 363.00811823 37.67115021 357.37830162 C38.7142925 349.51056742 38.37567912 341.58508858 38.171875 333.671875 C38.14946578 331.11073804 38.13239734 328.54954929 38.12042236 325.98834229 C38.07946633 319.96300296 37.98515742 313.94084351 37.86422849 307.91677308 C37.72944121 301.05122317 37.66395921 294.18553679 37.60388327 287.31899023 C37.47892153 273.21119703 37.26827058 259.10574471 37 245 C36.67 245 36.34 245 36 245 Z M-27.16015625 304.74609375 C-43.98124282 313.76859474 -60.86086488 320.95362163 -79 327 C-79 357.36 -79 387.72 -79 419 C-70.80450506 417.50991001 -63.42791783 415.82838412 -55.5625 413.375 C-54.44174072 413.02816162 -53.32098145 412.68132324 -52.16625977 412.32397461 C-35.53657142 408.09693901 -35.53657142 408.09693901 -21 400 C-20.90469019 396.95597578 -20.87448361 393.93468292 -20.88647461 390.89038086 C-20.88632858 389.93438492 -20.88618256 388.97838898 -20.8860321 387.99342346 C-20.88673165 384.81720755 -20.89452597 381.64104948 -20.90234375 378.46484375 C-20.90420778 376.26908907 -20.90563175 374.07333398 -20.90663147 371.87757874 C-20.91045781 366.08579367 -20.92028909 360.2940335 -20.93133545 354.5022583 C-20.94154707 348.59721209 -20.94612855 342.69216187 -20.95117188 336.78710938 C-20.96191125 325.19139528 -20.97898907 313.59569971 -21 302 C-23.12072788 302 -25.37517763 303.77535739 -27.16015625 304.74609375 Z M-96.3125 331.171875 C-97.39144531 331.42453125 -98.47039062 331.6771875 -99.58203125 331.9375 C-101.76843483 332.45723937 -103.95348411 332.98273087 -106.13671875 333.515625 C-119.39355302 336.59502901 -132.33563879 338.0479484 -146 340 C-146 369.7 -146 399.4 -146 430 C-133.19412891 428.78039323 -120.76835857 427.524324 -108.14477539 425.34057617 C-105.74698187 424.92617681 -103.34735685 424.52390574 -100.94726562 424.12304688 C-99.40873981 423.86265396 -97.87032343 423.60161337 -96.33203125 423.33984375 C-95.62077591 423.22003647 -94.90952057 423.10022919 -94.17671204 422.97679138 C-90.47747785 422.35039731 -90.47747785 422.35039731 -87 421 C-87 390.97 -87 360.94 -87 330 C-90.49166877 330 -92.9666242 330.36085877 -96.3125 331.171875 Z M-275 340 C-275 370.69 -275 401.38 -275 433 C-256.00762464 433.63307918 -237.00292375 434 -218 434 C-218 403.97 -218 373.94 -218 343 C-230.54 342.34 -243.08 341.68 -256 341 C-262.27 340.67 -268.54 340.34 -275 340 Z M-163.69140625 341.40234375 C-164.46951157 341.44436417 -165.24761688 341.48638458 -166.04930115 341.52967834 C-167.70793035 341.61937895 -169.36654506 341.70934776 -171.02514648 341.79956055 C-173.50045119 341.93412681 -175.97580664 342.06772432 -178.45117188 342.20117188 C-180.07291989 342.28900304 -181.69466477 342.37689212 -183.31640625 342.46484375 C-184.03172012 342.50343002 -184.747034 342.5420163 -185.48402405 342.58177185 C-193.65775551 343.02741778 -201.82798337 343.51929314 -210 344 C-210 373.37 -210 402.74 -210 433 C-181.30779869 433.35704648 -181.30779869 433.35704648 -154 431 C-154 401.3 -154 371.6 -154 341 C-157.23510077 341 -160.46186458 341.22645894 -163.69140625 341.40234375 Z " fill="#D4B5D6" transform="translate(386,528)"/>
</svg>
